<svg width="28" height="31" viewBox="0 0 28 31" fill="none" xmlns="http://www.w3.org/2000/svg">
<g filter="url(#filter0_d_2_161)">
<path fill-rule="evenodd" clip-rule="evenodd" d="M18.5284 6C18.5097 5.9193 18.4903 5.83842 18.47 5.75746C18.206 4.70138 17.7903 3.55383 17.1124 2.65C16.4134 1.71802 15.3928 1 13.9999 1C12.607 1 11.5864 1.71802 10.8874 2.65C10.2096 3.55383 9.79381 4.70138 9.52979 5.75747C9.50955 5.83842 9.4901 5.9193 9.47139 6H7.87104C6.29165 6 4.98275 7.22455 4.87769 8.80044L4.14435 19.8004C4.02892 21.532 5.40232 23 7.13771 23H20.8621C22.5975 23 23.9709 21.532 23.8555 19.8004L23.1221 8.80044C23.0171 7.22455 21.7082 6 20.1288 6H18.5284ZM9.47139 14.5C10.0444 14.5 10.998 10.5684 11 9.99817C11.0001 9.97438 11.0004 9.9506 11.0008 9.92682C11.0017 9.87413 11.0035 9.79455 11.0071 9.69194C11.0145 9.48652 11.0292 9.18999 11.059 8.83304C11.0801 8.57976 11.1085 8.29862 11.1467 8H16.8532C16.8913 8.29862 16.9197 8.57976 16.9409 8.83305C16.9706 9.18999 16.9854 9.48652 16.9927 9.69194C16.9964 9.79455 16.9982 9.87413 16.9991 9.92682C16.9995 9.95134 16.9998 9.97587 16.9999 10.0004C16.9999 10.0004 17.47 14.5 18.47 14.5C19.47 14.5 18.9999 9.99866 18.9999 9.99866C18.9998 9.9636 18.9994 9.92854 18.9988 9.89349C18.9977 9.829 18.9956 9.7367 18.9914 9.62056C18.9832 9.38848 18.9667 9.06001 18.9339 8.66695C18.9169 8.46202 18.8952 8.23812 18.8678 8H20.1288C20.6553 8 21.0916 8.40818 21.1266 8.93348L21.8599 19.9335C21.8984 20.5107 21.4406 21 20.8621 21H7.13771C6.55925 21 6.10145 20.5107 6.13992 19.9335L6.87326 8.93348C6.90828 8.40818 7.34458 8 7.87104 8H9.13202C9.10459 8.23812 9.08297 8.46202 9.06589 8.66696C9.03314 9.06001 9.01668 9.38848 9.00839 9.62056C9.00424 9.7367 9.00213 9.829 9.00106 9.89349C9.00048 9.92785 9.00005 9.96221 8.99994 9.99658C8.99918 10.5672 8.89972 14.5 9.47139 14.5ZM11.5335 6H16.4664C16.2352 5.15322 15.9209 4.39466 15.5124 3.85C15.0864 3.28198 14.607 3 13.9999 3C13.3928 3 12.9134 3.28198 12.4874 3.85C12.0789 4.39466 11.7647 5.15322 11.5335 6Z" fill="#0F0F0F"/>
</g>
<defs>
<filter id="filter0_d_2_161" x="-2" y="0" width="32" height="32" filterUnits="userSpaceOnUse" color-interpolation-filters="sRGB">
<feFlood flood-opacity="0" result="BackgroundImageFix"/>
<feColorMatrix in="SourceAlpha" type="matrix" values="0 0 0 0 0 0 0 0 0 0 0 0 0 0 0 0 0 0 127 0" result="hardAlpha"/>
<feOffset dy="4"/>
<feGaussianBlur stdDeviation="2"/>
<feComposite in2="hardAlpha" operator="out"/>
<feColorMatrix type="matrix" values="0 0 0 0 0 0 0 0 0 0 0 0 0 0 0 0 0 0 0.25 0"/>
<feBlend mode="normal" in2="BackgroundImageFix" result="effect1_dropShadow_2_161"/>
<feBlend mode="normal" in="SourceGraphic" in2="effect1_dropShadow_2_161" result="shape"/>
</filter>
</defs>
</svg>
